<?xml version="1.0" standalone="no"?>
<!DOCTYPE svg PUBLIC "-//W3C//DTD SVG 20010904//EN"
 "http://www.w3.org/TR/2001/REC-SVG-20010904/DTD/svg10.dtd">
<svg version="1.0" xmlns="http://www.w3.org/2000/svg"
 width="500.000000pt" height="500.000000pt" viewBox="0 0 500.000000 500.000000"
 preserveAspectRatio="xMidYMid meet">

<g transform="translate(0.000000,500.000000) scale(0.100000,-0.100000)"
fill="#000000" stroke="none">
<path d="M1096 3519 l-26 -31 0 -914 c0 -612 3 -922 10 -935 10 -18 6 -19
-150 -19 l-160 0 0 -65 c0 -52 4 -69 20 -85 20 -20 33 -20 1710 -20 1677 0
1690 0 1710 20 16 16 20 33 20 85 l0 65 -166 0 c-150 0 -164 1 -150 16 14 14
16 112 16 934 l0 918 -26 31 -26 31 -1378 0 -1378 0 -26 -31z m939 -9 c0 -8
-10 -16 -22 -18 -18 -3 -23 2 -23 18 0 16 5 21 23 18 12 -2 22 -10 22 -18z
m1795 -920 l0 -870 -1330 0 -1330 0 0 870 0 870 1330 0 1330 0 0 -870z m-902
-982 c-4 -10 -98 -13 -428 -13 -330 0 -424 3 -427 13 -4 9 86 12 427 12 341 0
431 -3 428 -12z m927 -73 c0 -25 -4 -30 -24 -30 -32 0 -49 28 -31 50 7 9 23
15 34 13 16 -2 21 -10 21 -33z m116 19 c17 -21 0 -49 -32 -49 -24 0 -36 23
-25 51 7 19 40 18 57 -2z m122 -6 c22 -34 -36 -66 -62 -34 -9 11 -10 20 -1 36
13 25 47 24 63 -2z m-2968 -13 c0 -11 -188 -20 -212 -10 -8 2 -11 10 -8 15 9
14 220 9 220 -5z"/>
<path d="M3100 2781 c-71 -15 -128 -60 -166 -131 -15 -28 -19 -57 -19 -140 0
-97 2 -109 29 -157 60 -108 186 -152 295 -103 52 24 61 25 61 5 0 -8 5 -15 10
-15 6 0 10 30 10 70 0 71 -13 93 -25 41 -14 -65 -107 -110 -183 -89 -89 25
-138 130 -129 275 8 140 73 223 172 223 60 0 106 -28 132 -79 12 -24 25 -46
28 -49 3 -3 5 29 5 71 0 45 -4 77 -10 77 -5 0 -10 -7 -10 -15 0 -19 -8 -19
-51 -1 -46 19 -107 26 -149 17z"/>
<path d="M1680 2772 c0 -6 10 -12 23 -14 l22 -3 3 -247 2 -248 -24 0 c-14 0
-28 -4 -31 -10 -4 -6 30 -10 95 -10 65 0 99 4 95 10 -3 6 -19 10 -36 10 l-29
0 0 115 0 115 34 0 c48 0 95 -19 108 -43 6 -12 15 -57 19 -102 9 -93 30 -121
84 -111 38 7 395 7 407 0 4 -3 8 29 8 71 0 57 -3 76 -12 73 -7 -3 -16 -25 -20
-51 -3 -25 -9 -51 -13 -56 -4 -7 -47 -11 -106 -11 l-99 0 0 120 0 121 88 -3
c84 -3 87 -4 90 -28 2 -14 8 -29 13 -35 5 -5 9 21 9 69 0 49 -4 75 -10 71 -5
-3 -10 -17 -10 -31 0 -24 -1 -24 -90 -24 l-90 0 0 115 0 115 100 0 99 0 7 -50
c7 -53 24 -69 24 -22 0 15 3 44 6 65 l7 37 -182 0 c-114 0 -181 -4 -181 -10 0
-5 11 -10 25 -10 l25 0 0 -250 c0 -243 -1 -250 -20 -250 -16 0 -20 7 -20 30 0
38 -18 40 -22 3 -2 -20 -9 -28 -23 -28 -18 0 -21 9 -26 71 -7 78 -28 127 -60
145 -21 11 -20 12 16 33 98 55 96 181 -5 240 -27 16 -58 20 -166 24 -91 3
-134 1 -134 -6z m271 -50 c23 -21 32 -39 36 -73 10 -87 -41 -139 -137 -139
l-50 0 0 120 0 120 60 0 c51 0 64 -4 91 -28z"/>
<path d="M2495 2770 c-4 -6 5 -10 19 -10 l26 0 0 -250 c0 -241 -1 -250 -19
-250 -11 0 -23 -4 -26 -10 -4 -6 28 -10 89 -10 57 0 96 4 96 10 0 6 -16 10
-35 10 l-36 0 3 113 3 112 40 3 c81 5 125 -48 125 -149 0 -69 26 -109 71 -109
36 0 69 31 69 65 0 34 -18 32 -22 -2 -2 -20 -9 -28 -22 -28 -17 0 -22 11 -32
81 -13 93 -20 108 -60 135 -20 13 -24 19 -12 19 29 0 87 59 98 99 21 80 -27
149 -120 170 -58 14 -247 14 -255 1z m264 -36 c25 -18 51 -71 51 -105 0 -36
-31 -89 -62 -105 -18 -9 -49 -14 -81 -12 l-52 3 -3 118 -3 117 63 0 c43 0 71
-5 87 -16z"/>
</g>
</svg>
