<?xml version="1.0" standalone="no"?>
<!DOCTYPE svg PUBLIC "-//W3C//DTD SVG 20010904//EN"
 "http://www.w3.org/TR/2001/REC-SVG-20010904/DTD/svg10.dtd">
<svg version="1.0" xmlns="http://www.w3.org/2000/svg"
 width="500.000000pt" height="500.000000pt" viewBox="0 0 500.000000 500.000000"
 preserveAspectRatio="xMidYMid meet">

<g transform="translate(0.000000,500.000000) scale(0.100000,-0.100000)"
fill="#000000" stroke="none">
<path d="M0 2500 l0 -2500 2500 0 2500 0 0 2500 0 2500 -2500 0 -2500 0 0
-2500z m3904 1019 l26 -31 0 -914 c0 -612 -3 -922 -10 -935 -10 -18 -6 -19
150 -19 l160 0 0 -65 c0 -52 -4 -69 -20 -85 -20 -20 -33 -20 -1710 -20 -1677
0 -1690 0 -1710 20 -16 16 -20 33 -20 85 l0 65 160 0 c156 0 160 1 150 19 -7
13 -10 323 -10 935 l0 914 26 31 26 31 1378 0 1378 0 26 -31z"/>
<path d="M1990 3510 c0 -16 5 -21 23 -18 12 2 22 10 22 18 0 8 -10 16 -22 18
-18 3 -23 -2 -23 -18z"/>
<path d="M1170 2590 l0 -870 1330 0 1330 0 0 870 0 870 -1330 0 -1330 0 0
-870z m2079 174 c43 -18 51 -18 51 1 0 8 5 15 10 15 6 0 10 -32 10 -77 0 -42
-2 -74 -5 -71 -3 3 -16 25 -28 49 -26 51 -72 79 -132 79 -99 0 -164 -83 -172
-223 -9 -145 40 -250 129 -275 76 -21 169 24 183 89 12 52 25 30 25 -41 0 -40
-4 -70 -10 -70 -5 0 -10 7 -10 15 0 20 -9 19 -61 -5 -109 -49 -235 -5 -295
103 -27 48 -29 60 -29 157 0 83 4 112 19 140 64 121 189 166 315 114z m-1269
-10 c101 -59 103 -185 5 -240 -36 -21 -37 -22 -16 -33 32 -18 53 -67 60 -145
5 -62 8 -71 26 -71 14 0 21 8 23 28 4 37 22 35 22 -3 0 -23 4 -30 20 -30 19 0
20 7 20 250 l0 250 -25 0 c-14 0 -25 5 -25 10 0 6 67 10 181 10 l182 0 -7 -37
c-3 -21 -6 -50 -6 -65 0 -47 -17 -31 -24 22 l-7 50 -99 0 -100 0 0 -115 0
-115 90 0 c89 0 90 0 90 24 0 14 5 28 10 31 6 4 10 -22 10 -71 0 -48 -4 -74
-9 -69 -5 6 -11 21 -13 35 -3 24 -6 25 -90 28 l-88 3 0 -121 0 -120 99 0 c59
0 102 4 106 11 4 5 10 31 13 56 4 26 13 48 20 51 9 3 12 -16 12 -73 0 -42 -4
-74 -8 -71 -12 7 -369 7 -407 0 -54 -10 -75 18 -84 111 -4 45 -13 90 -19 102
-13 24 -60 43 -108 43 l-34 0 0 -115 0 -115 29 0 c17 0 33 -4 36 -10 4 -6 -30
-10 -95 -10 -65 0 -99 4 -95 10 3 6 17 10 31 10 l24 0 -2 248 -3 247 -22 3
c-13 2 -23 8 -23 14 0 7 43 9 134 6 108 -4 139 -8 166 -24z m770 15 c93 -21
141 -90 120 -170 -11 -40 -69 -99 -98 -99 -12 0 -8 -6 12 -19 40 -27 47 -42
60 -135 10 -70 15 -81 32 -81 13 0 20 8 22 28 4 34 22 36 22 2 0 -34 -33 -65
-69 -65 -45 0 -71 40 -71 109 0 101 -44 154 -125 149 l-40 -3 -3 -112 -3 -113
36 0 c19 0 35 -4 35 -10 0 -6 -39 -10 -96 -10 -61 0 -93 4 -89 10 3 6 15 10
26 10 18 0 19 9 19 250 l0 250 -26 0 c-14 0 -23 4 -19 10 8 13 197 13 255 -1z"/>
<path d="M1800 2630 l0 -120 50 0 c96 0 147 52 137 139 -4 34 -13 52 -36 73
-27 24 -40 28 -91 28 l-60 0 0 -120z"/>
<path d="M2612 2633 l3 -118 52 -3 c65 -4 105 16 127 62 20 42 20 67 2 110
-21 50 -51 66 -124 66 l-63 0 3 -117z"/>
<path d="M2073 1608 c3 -10 97 -13 427 -13 330 0 424 3 428 13 3 9 -87 12
-428 12 -341 0 -431 -3 -427 -12z"/>
<path d="M3800 1555 c-18 -22 -1 -50 31 -50 20 0 24 5 24 30 0 23 -5 31 -21
33 -11 2 -27 -4 -34 -13z"/>
<path d="M3923 1563 c-7 -2 -13 -15 -13 -28 0 -31 36 -43 58 -21 27 27 -8 65
-45 49z"/>
<path d="M4031 1552 c-20 -38 31 -71 58 -38 9 11 10 20 1 35 -13 26 -46 27
-59 3z"/>
<path d="M905 1540 c-3 -5 0 -13 8 -15 24 -10 212 -1 212 10 0 14 -211 19
-220 5z"/>
</g>
</svg>
